<svg id="Layer_1" data-name="Layer 1" xmlns="http://www.w3.org/2000/svg" viewBox="0 0 300.07 292.61"><title>logo</title><path d="M-33.65,253.3" transform="translate(-5.35 0)" fill="#ffdf74"/><path d="M-33.65,253.3" transform="translate(-5.35 0)" fill="#ffd551"/><path d="M-33.65,253.3" transform="translate(-5.35 0)" fill="#eacf32"/><path d="M-33.65,253.3" transform="translate(-5.35 0)" fill="#eacf32"/><path d="M-33.65,253.3" transform="translate(-5.35 0)" fill="#eacf32"/><path d="M-33.65,253.3" transform="translate(-5.35 0)" fill="#eacf32"/><path d="M-33.65,253.3" transform="translate(-5.35 0)" fill="#ccc033"/><path d="M-33.65,253.3" transform="translate(-5.35 0)" fill="#ccc033"/><path d="M-33.65,253.3" transform="translate(-5.35 0)" fill="#ccc033"/><path d="M-33.65,253.3" transform="translate(-5.35 0)" fill="#ccc033"/><path d="M-33.65,253.3" transform="translate(-5.35 0)" fill="#ccc033"/><path d="M-33.65,253.3" transform="translate(-5.35 0)" fill="#eacf32"/><path d="M-33.65,253.3" transform="translate(-5.35 0)" fill="#99af17"/><path d="M-33.65,253.3" transform="translate(-5.35 0)" fill="#ccc033"/><path d="M-33.65,253.3" transform="translate(-5.35 0)" fill="#ccc033"/><path d="M-33.65,253.3" transform="translate(-5.35 0)" fill="#99af17"/><path d="M-33.65,253.3" transform="translate(-5.35 0)" fill="#99af17"/><path d="M-33.65,253.3" transform="translate(-5.35 0)" fill="#ccc033"/><path d="M-33.65,253.3" transform="translate(-5.35 0)" fill="#eacf32"/><path d="M-33.65,253.3" transform="translate(-5.35 0)" fill="#99af17"/><path d="M-33.65,253.3" transform="translate(-5.35 0)" fill="#f9bb32"/><path d="M-33.65,253.3" transform="translate(-5.35 0)" fill="#f9bb32"/><path d="M-33.65,253.3" transform="translate(-5.35 0)" fill="#db9c2e"/><path d="M-33.65,253.3" transform="translate(-5.35 0)" fill="#db9c2e"/><path d="M-33.65,253.3" transform="translate(-5.35 0)" fill="#f9bb32"/><path d="M-33.65,253.3" transform="translate(-5.35 0)" fill="#db9c2e"/><path d="M-33.65,253.3" transform="translate(-5.35 0)" fill="#ffdf74"/><path d="M-33.65,253.3" transform="translate(-5.35 0)" fill="#fce575"/><path d="M-33.65,253.3" transform="translate(-5.35 0)" fill="#ffd551"/><path d="M-33.65,253.3" transform="translate(-5.35 0)" fill="#a56021"/><path d="M-33.65,253.3" transform="translate(-5.35 0)" fill="#8c4c17"/><path d="M-33.65,253.3" transform="translate(-5.35 0)" fill="#f9bb32"/><path d="M-33.65,253.3" transform="translate(-5.35 0)" fill="#db9c2e"/><path d="M-33.65,253.3" transform="translate(-5.35 0)" fill="#bf6c0d"/><path d="M-33.65,253.3" transform="translate(-5.35 0)" fill="#bf6c0d"/><path d="M-33.65,253.3" transform="translate(-5.35 0)" fill="#a56021"/><path d="M-33.65,253.3" transform="translate(-5.35 0)" fill="#a56021"/><path d="M-33.65,253.3" transform="translate(-5.35 0)" fill="#a56021"/><path d="M-33.65,253.3" transform="translate(-5.35 0)" fill="#8c4c17"/><path d="M-33.65,253.3" transform="translate(-5.35 0)" fill="#bf6c0d"/><path d="M-33.65,253.3" transform="translate(-5.35 0)" fill="#ffc34c"/><path d="M-33.65,253.3" transform="translate(-5.35 0)" fill="#e58d23"/><path d="M-33.65,253.3" transform="translate(-5.35 0)" fill="#e58d23"/><path d="M-33.65,253.3" transform="translate(-5.35 0)" fill="#e58d23"/><path d="M-33.65,253.3" transform="translate(-5.35 0)" fill="#e58d23"/><path d="M-33.65,253.3" transform="translate(-5.35 0)" fill="#e58d23"/><path d="M-33.65,253.3" transform="translate(-5.35 0)" fill="#e58d23"/><path d="M-33.65,253.3" transform="translate(-5.35 0)" fill="#e58d23"/><path d="M-33.65,253.3" transform="translate(-5.35 0)" fill="#e58d23"/><path d="M-33.65,253.3" transform="translate(-5.35 0)" fill="#bf6c0d"/><path d="M-33.65,253.3" transform="translate(-5.35 0)" fill="#bf6c0d"/><path d="M-33.65,253.3" transform="translate(-5.35 0)" fill="#bf6c0d"/><path d="M-33.65,253.3" transform="translate(-5.35 0)" fill="#a56021"/><path d="M-33.65,253.3" transform="translate(-5.35 0)" fill="#bf6c0d"/><path d="M-33.65,253.3" transform="translate(-5.35 0)" fill="#bf6c0d"/><path d="M-33.65,253.3" transform="translate(-5.35 0)" fill="#bf6c0d"/><path d="M-33.65,253.3" transform="translate(-5.35 0)" fill="#bf6c0d"/><path d="M-33.65,253.3" transform="translate(-5.35 0)" fill="#ffc34c"/><path d="M-33.65,253.3" transform="translate(-5.35 0)" fill="#f9bb32"/><path d="M-33.65,253.3" transform="translate(-5.35 0)" fill="#bf6c0d"/><path d="M-33.65,253.3" transform="translate(-5.35 0)" fill="#bf6c0d"/><path d="M-33.65,253.3" transform="translate(-5.35 0)" fill="#bf6c0d"/><path d="M-33.65,253.3" transform="translate(-5.35 0)" fill="#bf6c0d"/><path d="M-33.65,253.3" transform="translate(-5.35 0)" fill="#ffc34c"/><path d="M-33.65,253.3" transform="translate(-5.35 0)" fill="#f9bb32"/><path d="M-33.65,253.3" transform="translate(-5.35 0)" fill="#bf6c0d"/><path d="M-33.65,253.3" transform="translate(-5.35 0)" fill="#a56021"/><path d="M-33.65,253.3" transform="translate(-5.35 0)" fill="#a56021"/><path d="M-33.65,253.3" transform="translate(-5.35 0)" fill="#a56021"/><path d="M-33.65,253.3" transform="translate(-5.35 0)" fill="#a56021"/><path d="M-33.65,253.3" transform="translate(-5.35 0)" fill="#bf6c0d"/><path d="M-33.65,253.3" transform="translate(-5.35 0)" fill="#a56021"/><path d="M-33.65,253.3" transform="translate(-5.35 0)" fill="#db9c2e"/><path d="M232.49,227.12h16a4.14,4.14,0,0,0,4.08-4.21v-.14L247.85,71.2H233.17l-4.76,151.57a4.16,4.16,0,0,0,3.94,4.35Z" transform="translate(-5.35 0)" fill="#ffdf74"/><path d="M240.64,222.77,245.4,71.2H233.17l-4.76,151.57a4.16,4.16,0,0,0,3.94,4.35h12.37a4.15,4.15,0,0,1-4.08-4.23Z" transform="translate(-5.35 0)" fill="#ffd551"/><path d="M229,209.66H252l-.39-12.48H229.37Z" transform="translate(-5.35 0)" fill="#eacf32"/><path d="M229.76,184.09h21.5l-.41-12.48h-20.7Z" transform="translate(-5.35 0)" fill="#eacf32"/><path d="M230.54,159.14h19.94l-.39-12.48H230.93Z" transform="translate(-5.35 0)" fill="#eacf32"/><path d="M231.33,133.57h18.36l-.39-12.48H231.72Z" transform="translate(-5.35 0)" fill="#eacf32"/><path d="M229.29,197.18l-.2,6.51-.19,6H241l.4-12.48Z" transform="translate(-5.35 0)" fill="#ccc033"/><path d="M230.09,171.61v1.28l-.35,11.2h12.07l.39-12.48Z" transform="translate(-5.35 0)" fill="#ccc033"/><path d="M230.85,146.66l-.09,2.79-.3,9.69h12.07l.4-12.48Z" transform="translate(-5.35 0)" fill="#ccc033"/><path d="M231.68,121.09l-.21,6.48-.19,6h12.08l.39-12.48Z" transform="translate(-5.35 0)" fill="#ccc033"/><path d="M239.51,77.47c3.87-14.2-4.54-31.66-20.89-41.41s-35.18-8.55-45.15,2Z" transform="translate(-5.35 0)" fill="#ccc033"/><path d="M231.1,61.79a3.75,3.75,0,0,1-3.35-2.08,36.9,36.9,0,0,0-14.16-14.86,3.74,3.74,0,1,1,3.61-6.55l.22.13a44.51,44.51,0,0,1,17,18,3.74,3.74,0,0,1-1.69,5A3.69,3.69,0,0,1,231.1,61.79Z" transform="translate(-5.35 0)" fill="#eacf32"/><path d="M192.19,38.07a27.32,27.32,0,0,1,13-7.51c-12.35-2.93-24.4-.22-31.7,7.51l66,39.4a27.84,27.84,0,0,0,.7-10.75Z" transform="translate(-5.35 0)" fill="#99af17"/><path d="M193,75.48c-15.67,10.6-22.85,28.44-18,42.36l14.67-9.92L187.85,94l10.84,7.77L238.26,75C227.56,65.05,208.62,64.88,193,75.48Z" transform="translate(-5.35 0)" fill="#ccc033"/><path d="M260,36.06c16.35-9.75,35.19-8.55,45.16,2L289.85,47.2l-11.34-7.7,1.88,13.34L239.11,77.47C235.28,63.27,243.69,45.81,260,36.06Z" transform="translate(-5.35 0)" fill="#ccc033"/><path d="M203.49,74.2a47.19,47.19,0,0,1,14.68-6.65A44.41,44.41,0,0,0,193,75.48c-15.67,10.6-22.85,28.44-18,42.36l9.33-6.31C182.45,98.57,189.66,83.56,203.49,74.2Z" transform="translate(-5.35 0)" fill="#99af17"/><path d="M272.51,36.06a47.06,47.06,0,0,1,16.72-6.15c-9.05-1.54-19.56.4-29.2,6.15-16.34,9.75-24.75,27.21-20.89,41.41l11.55-6.89C250.6,58,258.73,44.28,272.51,36.06Z" transform="translate(-5.35 0)" fill="#99af17"/><path d="M239.41,74.57c11.63-8.89,30.5-7.25,45.08,4.8s20,30.5,13.84,43.89Z" transform="translate(-5.35 0)" fill="#ccc033"/><path d="M294.56,115.54a3.7,3.7,0,0,1-2.38-.86L267.18,94A3.74,3.74,0,0,1,272,88.25h0l25,20.67a3.74,3.74,0,0,1-2.39,6.62Z" transform="translate(-5.35 0)" fill="#eacf32"/><path d="M289.6,93.38a47.63,47.63,0,0,1,10.82,12.67c-1.5-9.55-7-19.33-15.93-26.72-14.58-12-33.45-13.69-45.08-4.8L251.72,84.7C263.05,80.71,277.74,83.63,289.6,93.38Z" transform="translate(-5.35 0)" fill="#99af17"/><path d="M245.47,103.63h0a11.87,11.87,0,0,1-11.85-11.85V90.53a11.86,11.86,0,0,1,11.85-11.85h0a11.86,11.86,0,0,1,11.85,11.85h0v1.25A11.87,11.87,0,0,1,245.47,103.63Z" transform="translate(-5.35 0)" fill="#f9bb32"/><path d="M231.13,89.91h0a11.86,11.86,0,0,1-11.85-11.85h0V76.81A11.84,11.84,0,0,1,231.11,65h0A11.86,11.86,0,0,1,243,76.81h0v1.25A11.87,11.87,0,0,1,231.13,89.91Z" transform="translate(-5.35 0)" fill="#f9bb32"/><path d="M229.26,77.44h0a12.51,12.51,0,0,1,6.89-11.23A12,12,0,0,0,230.86,65h0a12.32,12.32,0,0,0-12.2,12.4h0a12.32,12.32,0,0,0,12.11,12.53h.08a12,12,0,0,0,5.29-1.24A12.48,12.48,0,0,1,229.26,77.44Z" transform="translate(-5.35 0)" fill="#db9c2e"/><path d="M244.23,91.16h0a12.51,12.51,0,0,1,6.89-11.23,11.91,11.91,0,0,0-5.27-1.25h0a12.33,12.33,0,0,0-12.19,12.46h0a12.33,12.33,0,0,0,12.17,12.49h0a11.82,11.82,0,0,0,5.29-1.24A12.46,12.46,0,0,1,244.23,91.16Z" transform="translate(-5.35 0)" fill="#db9c2e"/><path d="M300.36,292.61H11a5,5,0,0,1-5-5v-60.5a5,5,0,0,1,5-5h289.4a5,5,0,0,1,5,5v60.5A5,5,0,0,1,300.36,292.61Z" transform="translate(-5.35 0)" fill="#f9bb32"/><path d="M33.42,237.1a5,5,0,0,1,5-5h267v-5a5,5,0,0,0-5-5H11a5,5,0,0,0-5,5v60.5a5,5,0,0,0,5,5H33.42Z" transform="translate(-5.35 0)" fill="#db9c2e"/><path d="M39,75.56H190.59V215.27H39Z" transform="translate(-5.35 0)" fill="#ffdf74"/><path d="M176.85,158.83V121.14a3.83,3.83,0,0,1,3.27-3.85,3.74,3.74,0,0,1,4.21,3.71v38a3.75,3.75,0,0,1-3.75,3.75,3.55,3.55,0,0,1-.46,0A3.82,3.82,0,0,1,176.85,158.83Z" transform="translate(-5.35 0)" fill="#fce575"/><path d="M39,75.56H74V215.27H39Z" transform="translate(-5.35 0)" fill="#ffd551"/><path d="M215.67,95.52H14.16L112.32,1.05a3.73,3.73,0,0,1,5.19,0Z" transform="translate(-5.35 0)" fill="#a56021"/><path d="M117.51,1.05a3.73,3.73,0,0,0-5.19,0L14.16,95.52H49.08l83.29-80.14Z" transform="translate(-5.35 0)" fill="#8c4c17"/><path d="M191.68,95.52H38.15l74.17-71.39a3.75,3.75,0,0,1,5.19,0Z" transform="translate(-5.35 0)" fill="#f9bb32"/><path d="M117.51,24.13a3.75,3.75,0,0,0-5.19,0L38.15,95.52H63.09l64.29-61.88Z" transform="translate(-5.35 0)" fill="#db9c2e"/><path d="M31.55,212.78h15v79.83h-15Z" transform="translate(-5.35 0)" fill="#bf6c0d"/><path d="M183.1,212.78h15v79.83h-15Z" transform="translate(-5.35 0)" fill="#bf6c0d"/><path d="M31.55,212.78h10v79.83h-10Z" transform="translate(-5.35 0)" fill="#a56021"/><path d="M183.1,212.78h10v79.83h-10Z" transform="translate(-5.35 0)" fill="#a56021"/><path d="M138.2,202.8H88.3V130.45a2.5,2.5,0,0,1,2.5-2.5h44.9a2.5,2.5,0,0,1,2.5,2.5Z" transform="translate(-5.35 0)" fill="#a56021"/><path d="M103.27,140.43a2.5,2.5,0,0,1,2.49-2.5H138.2v-7.48a2.5,2.5,0,0,0-2.5-2.5H90.85a2.5,2.5,0,0,0-2.5,2.5V202.8h15Z" transform="translate(-5.35 0)" fill="#8c4c17"/><path d="M220.53,115.48H9.09a3.73,3.73,0,0,1-3.74-3.74h0V99.26a3.73,3.73,0,0,1,3.72-3.74H220.53a3.73,3.73,0,0,1,3.74,3.74v12.51A3.72,3.72,0,0,1,220.53,115.48Z" transform="translate(-5.35 0)" fill="#bf6c0d"/><path d="M213,215.27H16.58a2.5,2.5,0,0,1-2.5-2.49v-7.49a2.48,2.48,0,0,1,2.49-2.49H213a2.48,2.48,0,0,1,2.5,2.48h0v7.49A2.5,2.5,0,0,1,213,215.27Z" transform="translate(-5.35 0)" fill="#ffc34c"/><path d="M132,167.87h8.11V202.8H132Z" transform="translate(-5.35 0)" fill="#e58d23"/><path d="M151.92,167.87H160V202.8h-8.11Z" transform="translate(-5.35 0)" fill="#e58d23"/><path d="M176.85,167.87H185V202.8h-8.11Z" transform="translate(-5.35 0)" fill="#e58d23"/><path d="M199.32,167.87h8.11V202.8h-8.11Z" transform="translate(-5.35 0)" fill="#e58d23"/><path d="M19.7,167.87h8.15V202.8h-8.1Z" transform="translate(-5.35 0)" fill="#e58d23"/><path d="M39.65,167.87h8.11V202.8H39.65Z" transform="translate(-5.35 0)" fill="#e58d23"/><path d="M64.6,167.87h8.11V202.8H64.6Z" transform="translate(-5.35 0)" fill="#e58d23"/><path d="M87.05,167.87h8.11V202.8H87.05Z" transform="translate(-5.35 0)" fill="#e58d23"/><path d="M140.07,218.38v8.11H85.85v-8.11Z" transform="translate(-5.35 0)" fill="#bf6c0d"/><path d="M140.07,244v8.11H85.85V244Z" transform="translate(-5.35 0)" fill="#bf6c0d"/><path d="M140.07,268.91V277H85.85v-8.11Z" transform="translate(-5.35 0)" fill="#bf6c0d"/><path d="M40.28,111.77V99.23A3.73,3.73,0,0,1,44,95.52H9.09a3.73,3.73,0,0,0-3.74,3.72v12.5a3.73,3.73,0,0,0,3.74,3.74H44a3.73,3.73,0,0,1-3.74-3.7Z" transform="translate(-5.35 0)" fill="#a56021"/><path d="M19.7,167.87h5V202.8h-5Z" transform="translate(-5.35 0)" fill="#bf6c0d"/><path d="M39.65,167.87h5V202.8h-5Z" transform="translate(-5.35 0)" fill="#bf6c0d"/><path d="M64.6,167.87h5V202.8h-5Z" transform="translate(-5.35 0)" fill="#bf6c0d"/><path d="M87.05,167.87h5V202.8h-5Z" transform="translate(-5.35 0)" fill="#bf6c0d"/><path d="M97.66,175.38H15.33a2.48,2.48,0,0,1-2.5-2.48h0v-5a2.5,2.5,0,0,1,2.5-2.5H97.66a2.48,2.48,0,0,1,2.49,2.49h0v5a2.48,2.48,0,0,1-2.47,2.49Z" transform="translate(-5.35 0)" fill="#ffc34c"/><path d="M47.76,172.86v-5a2.5,2.5,0,0,1,2.5-2.5H15.33a2.5,2.5,0,0,0-2.5,2.5v5a2.48,2.48,0,0,0,2.49,2.49H50.26a2.48,2.48,0,0,1-2.5-2.48Z" transform="translate(-5.35 0)" fill="#f9bb32"/><path d="M132,167.87h5V202.8h-5Z" transform="translate(-5.35 0)" fill="#bf6c0d"/><path d="M151.92,167.87h5V202.8h-5Z" transform="translate(-5.35 0)" fill="#bf6c0d"/><path d="M176.85,167.87h5V202.8h-5Z" transform="translate(-5.35 0)" fill="#bf6c0d"/><path d="M199.32,167.87h5V202.8h-5Z" transform="translate(-5.35 0)" fill="#bf6c0d"/><path d="M213,175.38H130.71a2.48,2.48,0,0,1-2.49-2.49h0v-5a2.5,2.5,0,0,1,2.49-2.5H213a2.5,2.5,0,0,1,2.5,2.5v5a2.48,2.48,0,0,1-2.49,2.49Z" transform="translate(-5.35 0)" fill="#ffc34c"/><path d="M163.15,172.86v-5a2.48,2.48,0,0,1,2.48-2.5H130.71a2.5,2.5,0,0,0-2.49,2.5v5a2.48,2.48,0,0,0,2.49,2.49h34.93a2.48,2.48,0,0,1-2.49-2.47Z" transform="translate(-5.35 0)" fill="#f9bb32"/><path d="M132,202.8h8.11v89.81H132Z" transform="translate(-5.35 0)" fill="#bf6c0d"/><path d="M132,202.8h5v89.81h-5Z" transform="translate(-5.35 0)" fill="#a56021"/><path d="M85.85,218.38H108.3v8.11H85.85Z" transform="translate(-5.35 0)" fill="#a56021"/><path d="M85.85,244H108.3v8.11H85.85Z" transform="translate(-5.35 0)" fill="#a56021"/><path d="M85.85,268.91H108.3V277H85.85Z" transform="translate(-5.35 0)" fill="#a56021"/><path d="M85.85,202.8H94v89.81H85.85Z" transform="translate(-5.35 0)" fill="#bf6c0d"/><path d="M85.85,202.8h5v89.81h-5Z" transform="translate(-5.35 0)" fill="#a56021"/><path d="M108.39,82.23A11.22,11.22,0,1,1,97.17,71a11.22,11.22,0,0,1,11.22,11.22Z" transform="translate(-5.35 0)" fill="#db9c2e"/></svg>